<svg xmlns="http://www.w3.org/2000/svg" width="1920" height="1080" viewBox="0 0 1920 1080" role="img" aria-labelledby="title desc">
  <title id="title">MemGoat Cognee Technical Details</title>
  <desc id="desc">High-level technical details for the MemGoat Cognee hackathon demo, showing stack, API routes, Cognee calls, and demo behavior.</desc>
  <defs>
    <linearGradient id="bg" x1="0" y1="0" x2="1" y2="1">
      <stop offset="0" stop-color="#0f172a"/>
      <stop offset="0.52" stop-color="#1f2937"/>
      <stop offset="1" stop-color="#3f2d20"/>
    </linearGradient>
    <linearGradient id="accent" x1="0" y1="0" x2="1" y2="1">
      <stop offset="0" stop-color="#fcd34d"/>
      <stop offset="1" stop-color="#f97316"/>
    </linearGradient>
    <linearGradient id="panel" x1="0" y1="0" x2="0" y2="1">
      <stop offset="0" stop-color="#fff7ed"/>
      <stop offset="1" stop-color="#ffedd5"/>
    </linearGradient>
    <filter id="shadow" x="-20%" y="-20%" width="140%" height="140%">
      <feDropShadow dx="0" dy="16" stdDeviation="16" flood-color="#000000" flood-opacity="0.28"/>
    </filter>
    <style>
      .title { font: 800 62px Arial, sans-serif; fill: #fff7ed; letter-spacing: 0; }
      .subtitle { font: 400 27px Arial, sans-serif; fill: #fed7aa; letter-spacing: 0; }
      .panelTitle { font: 800 32px Arial, sans-serif; fill: #111827; letter-spacing: 0; }
      .body { font: 500 23px Arial, sans-serif; fill: #1f2937; letter-spacing: 0; }
      .bodyStrong { font: 800 23px Arial, sans-serif; fill: #111827; letter-spacing: 0; }
      .code { font: 700 22px Consolas, monospace; fill: #7c2d12; letter-spacing: 0; }
      .darkTitle { font: 800 33px Arial, sans-serif; fill: #fff7ed; letter-spacing: 0; }
      .darkBody { font: 500 23px Arial, sans-serif; fill: #fde68a; letter-spacing: 0; }
      .chip { font: 800 20px Arial, sans-serif; fill: #111827; letter-spacing: 0; }
      .panel { filter: url(#shadow); }
      .line { stroke: #f59e0b; stroke-width: 5; stroke-linecap: round; }
    </style>
  </defs>

  <rect width="1920" height="1080" fill="url(#bg)"/>
  <path d="M0 762 C180 698 360 736 560 690 C762 642 902 720 1080 660 C1280 592 1515 654 1920 570 L1920 1080 L0 1080 Z" fill="#0b0f14" opacity="0.56"/>
  <path d="M0 862 C262 822 438 890 665 832 C922 766 1092 840 1330 782 C1544 730 1712 748 1920 708 L1920 1080 L0 1080 Z" fill="#1c1917" opacity="0.8"/>

  <text x="90" y="100" class="title">Cognee-centered technical details</text>
  <text x="94" y="148" class="subtitle">For the demo video: Goat = LLM session. Cave = Cognee memory graph. The LLM forgets; Cognee does not.</text>

  <g class="panel" transform="translate(90,220)">
    <rect width="520" height="320" rx="26" fill="url(#panel)"/>
    <rect x="28" y="28" width="94" height="42" rx="21" fill="#bae6fd"/>
    <text x="75" y="56" class="chip" text-anchor="middle">UI</text>
    <text x="40" y="110" class="panelTitle">Frontend</text>
    <text x="40" y="158" class="bodyStrong">Vanilla web UI in this slice</text>
    <text x="40" y="197" class="body">first-person cave scenes, timer,</text>
    <text x="40" y="231" class="body">hotspots, memory graph, Cave Echo</text>
    <text x="40" y="279" class="code">ui/index.html + script.js + styles.css</text>
  </g>

  <g class="panel" transform="translate(700,220)">
    <rect width="520" height="320" rx="26" fill="url(#panel)"/>
    <rect x="28" y="28" width="108" height="42" rx="21" fill="#bbf7d0"/>
    <text x="82" y="56" class="chip" text-anchor="middle">API</text>
    <text x="40" y="110" class="panelTitle">Backend</text>
    <text x="40" y="158" class="bodyStrong">FastAPI + Pydantic + SQLite</text>
    <text x="40" y="197" class="body">canonical session state, puzzle rules,</text>
    <text x="40" y="231" class="body">commits, resets, graph snapshots</text>
    <text x="40" y="279" class="code">backend/app/main.py</text>
  </g>

  <g class="panel" transform="translate(1310,220)">
    <rect width="520" height="320" rx="26" fill="#28160b"/>
    <rect x="28" y="28" width="140" height="42" rx="21" fill="url(#accent)"/>
    <text x="98" y="56" class="chip" text-anchor="middle">COGNEE</text>
    <text x="40" y="110" class="darkTitle">Persistent cave memory</text>
    <text x="40" y="158" class="darkBody">graph completion recall over</text>
    <text x="40" y="192" class="darkBody">committed memories, nodes, edges,</text>
    <text x="40" y="226" class="darkBody">sources, confidence, false-memory state</text>
    <text x="40" y="279" class="code" fill="#fde68a">CogneeMemoryService</text>
  </g>

  <path class="line" d="M610 380 L700 380"/>
  <path class="line" d="M1220 380 L1310 380"/>

  <g class="panel" transform="translate(90,610)">
    <rect width="540" height="300" rx="26" fill="#f8fafc"/>
    <text x="40" y="65" class="panelTitle">Demo API flow</text>
    <text x="40" y="116" class="code">POST /objects/{id}/inspect</text>
    <text x="40" y="154" class="body">player finds a cave artifact</text>
    <text x="40" y="202" class="code">POST /memories/commit</text>
    <text x="40" y="240" class="body">chosen interpretation is sent to Cognee</text>
  </g>

  <g class="panel" transform="translate(690,610)">
    <rect width="540" height="300" rx="26" fill="#f8fafc"/>
    <text x="40" y="65" class="panelTitle">Cognee operations</text>
    <text x="40" y="116" class="code">remember(memory, nodes, edges)</text>
    <text x="40" y="154" class="body">extracts cave entities and relations</text>
    <text x="40" y="202" class="code">recall("what do I know?")</text>
    <text x="40" y="240" class="body">answers from graph paths, not chat history</text>
  </g>

  <g class="panel" transform="translate(1290,610)">
    <rect width="540" height="300" rx="26" fill="#f8fafc"/>
    <text x="40" y="65" class="panelTitle">Hackathon proof point</text>
    <text x="40" y="116" class="bodyStrong">2-minute reset creates a fresh LLM</text>
    <text x="40" y="154" class="body">the Goat/LLM loses context</text>
    <text x="40" y="202" class="bodyStrong">Cognee keeps the cave graph</text>
    <text x="40" y="240" class="body">recall rehydrates the next session</text>
  </g>

  <g transform="translate(290,965)">
    <rect width="1340" height="58" rx="29" fill="#020617" opacity="0.72"/>
    <text x="670" y="38" class="darkBody" text-anchor="middle">Core message: MemGoat turns stateless LLM play into persistent, queryable memory by making Cognee the cave.</text>
  </g>
</svg>
